<?xml version="1.0" encoding="UTF-8" standalone="no"?>
<!DOCTYPE svg PUBLIC "-//W3C//DTD SVG 1.0//EN" "http://www.w3.org/TR/2001/PR-SVG-20010719/DTD/svg10.dtd">
<svg width="78cm" height="75cm" viewBox="-389 -179 1548 1493" xmlns="http://www.w3.org/2000/svg" xmlns:xlink="http://www.w3.org/1999/xlink">
  <g>
    <rect style="fill: #ffffff" x="266.518" y="778.607" width="80" height="36" rx="10" ry="10"/>
    <rect style="fill: none; fill-opacity:0; stroke-width: 2; stroke: #000000" x="266.518" y="778.607" width="80" height="36" rx="10" ry="10"/>
    <text font-size="12.8" style="fill: #000000;text-anchor:middle;font-family:sans-serif;font-style:normal;font-weight:normal" x="306.518" y="800.507">
      <tspan x="306.518" y="800.507">unknown</tspan>
    </text>
  </g>
  <g>
    <rect style="fill: #ffffff" x="950.64" y="846.422" width="100.5" height="36" rx="10" ry="10"/>
    <rect style="fill: none; fill-opacity:0; stroke-width: 2; stroke: #000000" x="950.64" y="846.422" width="100.5" height="36" rx="10" ry="10"/>
    <text font-size="12.8" style="fill: #000000;text-anchor:middle;font-family:sans-serif;font-style:normal;font-weight:normal" x="1000.89" y="868.322">
      <tspan x="1000.89" y="868.322">wait blocked</tspan>
    </text>
  </g>
  <g>
    <rect style="fill: #ffffff" x="572.848" y="111.71" width="84.05" height="36" rx="10" ry="10"/>
    <rect style="fill: none; fill-opacity:0; stroke-width: 2; stroke: #000000" x="572.848" y="111.71" width="84.05" height="36" rx="10" ry="10"/>
    <text font-size="12.8" style="fill: #000000;text-anchor:middle;font-family:sans-serif;font-style:normal;font-weight:normal" x="614.873" y="133.61">
      <tspan x="614.873" y="133.61">usermode</tspan>
    </text>
  </g>
  <g>
    <rect style="fill: #ffffff" x="407.597" y="415.766" width="80" height="36" rx="10" ry="10"/>
    <rect style="fill: none; fill-opacity:0; stroke-width: 2; stroke: #000000" x="407.597" y="415.766" width="80" height="36" rx="10" ry="10"/>
    <text font-size="12.8" style="fill: #000000;text-anchor:middle;font-family:sans-serif;font-style:normal;font-weight:normal" x="447.597" y="437.666">
      <tspan x="447.597" y="437.666">syscall</tspan>
    </text>
  </g>
  <g>
    <rect style="fill: #ffffff" x="-183.452" y="494.498" width="92.15" height="36" rx="10" ry="10"/>
    <rect style="fill: none; fill-opacity:0; stroke-width: 2; stroke: #000000" x="-183.452" y="494.498" width="92.15" height="36" rx="10" ry="10"/>
    <text font-size="12.8" style="fill: #000000;text-anchor:middle;font-family:sans-serif;font-style:normal;font-weight:normal" x="-137.377" y="516.398">
      <tspan x="-137.377" y="516.398">interrupted</tspan>
    </text>
  </g>
  <g>
    <rect style="fill: #ffffff" x="927.048" y="350.742" width="95.85" height="36" rx="10" ry="10"/>
    <rect style="fill: none; fill-opacity:0; stroke-width: 2; stroke: #000000" x="927.048" y="350.742" width="95.85" height="36" rx="10" ry="10"/>
    <text font-size="12.8" style="fill: #000000;text-anchor:middle;font-family:sans-serif;font-style:normal;font-weight:normal" x="974.973" y="372.642">
      <tspan x="974.973" y="372.642">wait for cpu</tspan>
    </text>
  </g>
  <g>
    <polyline style="fill: none; fill-opacity:0; stroke-width: 2; stroke: #000000" points="-112.251,81.2241 -256.65,81.2241 -256.65,893.752 306.518,893.752 306.518,819.079 "/>
    <polyline style="fill: none; fill-opacity:0; stroke-width: 2; stroke: #000000" points="311.518,826.843 306.518,816.843 301.518,826.843 "/>
    <text font-size="12.7998" style="fill: #000000;text-anchor:middle;font-family:sans-serif;font-style:normal;font-weight:normal" x="-20.8214" y="885.623">[Threads/tid/Status == null AND status != 5 AND status != 2]</text>
    <text font-size="12.7998" style="fill: #000000;text-anchor:middle;font-family:sans-serif;font-style:normal;font-weight:normal" x="-35.0865" y="870.061">lttng_statedump_process_state</text>
  </g>
  <g>
    <polyline style="fill: none; fill-opacity:0; stroke-width: 2; stroke: #008000" points="656.898,129.71 802.596,129.71 802.596,524.643 1000.89,524.643 1000.89,841.95 "/>
    <polyline style="fill: none; fill-opacity:0; stroke-width: 2; stroke: #008000" points="995.89,834.186 1000.89,844.186 1005.89,834.186 "/>
  </g>
  <g>
    <polyline style="fill: none; fill-opacity:0; stroke-width: 2; stroke: #008000" points="656.898,111.71 975.13,111.71 975.13,141.391 974.973,141.391 974.973,346.27 "/>
    <polyline style="fill: none; fill-opacity:0; stroke-width: 2; stroke: #008000" points="969.973,338.506 974.973,348.506 979.973,338.506 "/>
    <text font-size="12.7998" style="fill: #000000;text-anchor:middle;font-family:sans-serif;font-style:normal;font-weight:normal" x="976.544" y="310.892">[prev_state == 0]</text>
    <text font-size="12.7998" style="fill: #000000;text-anchor:middle;font-family:sans-serif;font-style:normal;font-weight:normal" x="977.958" y="293.92">sched_switch</text>
  </g>
  <g>
    <polyline style="fill: none; fill-opacity:0; stroke-width: 2; stroke: #000000" points="-109.657,55.4432 -109.657,55.8279 -329.009,55.8279 -329.009,953.854 1003.48,953.854 1003.48,879.113 "/>
    <polyline style="fill: none; fill-opacity:0; stroke-width: 2; stroke: #000000" points="1008.48,886.877 1003.48,876.877 998.483,886.877 "/>
    <text font-size="12.7998" style="fill: #000000;text-anchor:middle;font-family:sans-serif;font-style:normal;font-weight:normal" x="399.351" y="947.871">[Threads/tid/Status == null AND status == 5]</text>
    <text font-size="12.7998" style="fill: #000000;text-anchor:middle;font-family:sans-serif;font-style:normal;font-weight:normal" x="411.022" y="929.716">lttng_statedump_process_state</text>
  </g>
  <g>
    <polyline style="fill: none; fill-opacity:0; stroke-width: 2; stroke: #000000" points="-72.2506,45.2241 -74.2162,45.2241 -74.2162,0.20544 1072.3,0.20544 1072.3,350.742 1027.37,350.742 "/>
    <polyline style="fill: none; fill-opacity:0; stroke-width: 2; stroke: #000000" points="1035.13,345.742 1025.13,350.742 1035.13,355.742 "/>
    <text font-size="12.7998" style="fill: #000000;text-anchor:middle;font-family:sans-serif;font-style:normal;font-weight:normal" x="488.582" y="-14.0506">[Threads/tid/Status == null AND status == 2]</text>
    <text font-size="12.7998" style="fill: #000000;text-anchor:middle;font-family:sans-serif;font-style:normal;font-weight:normal" x="496.363" y="-33.503">lttng_statedump_process_state</text>
  </g>
  <g>
    <polyline style="fill: none; fill-opacity:0; stroke-width: 2; stroke: #ecc115" points="487.597,415.766 487.597,418.766 656.898,418.766 656.898,152.183 "/>
    <polyline style="fill: none; fill-opacity:0; stroke-width: 2; stroke: #ecc115" points="661.898,159.947 656.898,149.947 651.898,159.947 "/>
    <text font-size="12.7998" style="fill: #000000;text-anchor:middle;font-family:sans-serif;font-style:normal;font-weight:normal" x="669.372" y="203.492">exit_syscall</text>
  </g>
  <g>
    <polyline style="fill: none; fill-opacity:0; stroke-width: 2; stroke: #ecc115" points="-137.377,494.498 -137.377,181.446 572.848,181.446 572.848,152.183 "/>
    <polyline style="fill: none; fill-opacity:0; stroke-width: 2; stroke: #ecc115" points="577.848,159.947 572.848,149.947 567.848,159.947 "/>
    <text font-size="12.7998" style="fill: #000000;text-anchor:middle;font-family:sans-serif;font-style:normal;font-weight:normal" x="234.518" y="171.066">[CurrentThread/System_call == null]</text>
    <text font-size="12.7998" style="fill: #000000;text-anchor:middle;font-family:sans-serif;font-style:normal;font-weight:normal" x="230.557" y="151.44">irq_handler_exit</text>
  </g>
  <g>
    <polyline style="fill: none; fill-opacity:0; stroke-width: 2; stroke: #ecc115" points="-91.302,494.498 -91.302,416.172 168.895,416.172 168.895,415.766 403.125,415.766 "/>
    <polyline style="fill: none; fill-opacity:0; stroke-width: 2; stroke: #ecc115" points="395.361,420.766 405.361,415.766 395.361,410.766 "/>
    <text font-size="12.7998" style="fill: #000000;text-anchor:middle;font-family:sans-serif;font-style:normal;font-weight:normal" x="128.694" y="408.391">[CurrentThread/System_call != null]</text>
    <text font-size="12.7998" style="fill: #000000;text-anchor:middle;font-family:sans-serif;font-style:normal;font-weight:normal" x="128.694" y="391.532">irq_handler_exit</text>
  </g>
  <g>
    <polyline style="fill: none; fill-opacity:0; stroke-width: 2; stroke: #ecc115" points="-91.302,530.498 -91.302,587.353 572.848,587.353 572.848,152.183 "/>
    <polyline style="fill: none; fill-opacity:0; stroke-width: 2; stroke: #ecc115" points="577.848,159.947 572.848,149.947 567.848,159.947 "/>
    <text font-size="12.7998" style="fill: #000000;text-anchor:middle;font-family:sans-serif;font-style:normal;font-weight:normal" x="135.178" y="580.869">[CurrentThread/System_call == null]</text>
    <text font-size="12.7998" style="fill: #000000;text-anchor:middle;font-family:sans-serif;font-style:normal;font-weight:normal" x="133.881" y="565.307">softirq_exit</text>
  </g>
  <g>
    <polyline style="fill: none; fill-opacity:0; stroke-width: 2; stroke: #ecc115" points="-91.302,512.498 -91.767,512.498 -91.767,337.065 447.597,337.065 447.597,411.294 "/>
    <polyline style="fill: none; fill-opacity:0; stroke-width: 2; stroke: #ecc115" points="442.597,403.53 447.597,413.53 452.597,403.53 "/>
    <text font-size="12.7998" style="fill: #000000;text-anchor:middle;font-family:sans-serif;font-style:normal;font-weight:normal" x="100.163" y="327.988">[CurrentThread/System_call != null]</text>
    <text font-size="12.7998" style="fill: #000000;text-anchor:middle;font-family:sans-serif;font-style:normal;font-weight:normal" x="102.757" y="311.129">softirq_exit</text>
  </g>
  <g>
    <polygon style="fill: #ffffff" points="-143.12,-177.556 47.6802,-177.556 59.6802,-165.556 59.6802,-63.5564 -143.12,-63.5564 "/>
    <polygon style="fill: none; fill-opacity:0; stroke-width: 2; stroke: #000000" points="-143.12,-177.556 47.6802,-177.556 59.6802,-165.556 59.6802,-63.5564 -143.12,-63.5564 "/>
    <polyline style="fill: none; fill-opacity:0; stroke-width: 1; stroke: #000000" points="47.6802,-177.556 47.6802,-165.556 59.6802,-165.556 "/>
    <text font-size="12.8" style="fill: #000000;text-anchor:start;font-family:monospace;font-style:normal;font-weight:normal" x="-136.12" y="-152.656">
      <tspan x="-136.12" y="-152.656">for some process</tspan>
      <tspan x="-136.12" y="-136.656"></tspan>
      <tspan x="-136.12" y="-120.656">(no distinction between </tspan>
      <tspan x="-136.12" y="-104.656">CurrentThread/Status</tspan>
      <tspan x="-136.12" y="-88.6564">newCurrentThread/Status</tspan>
      <tspan x="-136.12" y="-72.6564">Threads/tid/Status)</tspan>
    </text>
  </g>
  <g>
    <polyline style="fill: none; fill-opacity:0; stroke-width: 2; stroke: #ecc115" points="572.848,147.71 487.162,147.71 487.162,330.905 487.597,330.905 487.597,411.294 "/>
    <polyline style="fill: none; fill-opacity:0; stroke-width: 2; stroke: #ecc115" points="482.597,403.53 487.597,413.53 492.597,403.53 "/>
    <text font-size="12.7998" style="fill: #000000;text-anchor:middle;font-family:sans-serif;font-style:normal;font-weight:normal" x="492.36" y="294.27">sys_* | compat_sys_*</text>
  </g>
  <g>
    <polyline style="fill: none; fill-opacity:0; stroke-width: 2; stroke: #000000" points="-32.2506,45.2241 1022.9,45.2241 1022.9,346.27 "/>
    <polyline style="fill: none; fill-opacity:0; stroke-width: 2; stroke: #000000" points="1017.9,338.506 1022.9,348.506 1027.9,338.506 "/>
    <text font-size="12.7998" style="fill: #000000;text-anchor:middle;font-family:sans-serif;font-style:normal;font-weight:normal" x="508.565" y="36.2014">sched_process_fork</text>
  </g>
  <g>
    <polyline style="fill: none; fill-opacity:0; stroke-width: 2; stroke: #ff0000" points="407.597,415.766 409.445,415.766 409.445,111.71 568.376,111.71 "/>
    <polyline style="fill: none; fill-opacity:0; stroke-width: 2; stroke: #ff0000" points="560.612,116.71 570.612,111.71 560.612,106.71 "/>
    <text font-size="12.7998" style="fill: #000000;text-anchor:middle;font-family:sans-serif;font-style:normal;font-weight:normal" x="426.159" y="107.074">[newCurrentThread/System_call == null]</text>
    <text font-size="12.7998" style="fill: #000000;text-anchor:middle;font-family:sans-serif;font-style:normal;font-weight:normal" x="428.34" y="92.8979">sched_switch</text>
  </g>
  <g>
    <polyline style="fill: none; fill-opacity:0; stroke-width: 2; stroke: #ff0000" points="614.873,147.71 614.873,451.766 492.069,451.766 "/>
    <polyline style="fill: none; fill-opacity:0; stroke-width: 2; stroke: #ff0000" points="499.833,446.766 489.833,451.766 499.833,456.766 "/>
    <text font-size="12.7998" style="fill: #000000;text-anchor:middle;font-family:sans-serif;font-style:normal;font-weight:normal" x="631.12" y="339.659">[newCurrentThread/System_call != null]</text>
    <text font-size="12.7998" style="fill: #000000;text-anchor:middle;font-family:sans-serif;font-style:normal;font-weight:normal" x="625.933" y="321.503">sched_switch</text>
  </g>
  <text font-size="12.8" style="fill: #000000;text-anchor:start;font-family:sans-serif;font-style:normal;font-weight:normal" x="393" y="579">
    <tspan x="393" y="579"></tspan>
  </text>
  <g>
    <polyline style="fill: none; fill-opacity:0; stroke-width: 2; stroke: #ecc115" points="927.048,386.742 927.048,608.102 -137.377,608.102 -137.377,534.97 "/>
    <polyline style="fill: none; fill-opacity:0; stroke-width: 2; stroke: #ecc115" points="-132.377,542.734 -137.377,532.734 -142.377,542.734 "/>
    <text font-size="12.7998" style="fill: #000000;text-anchor:middle;font-family:sans-serif;font-style:normal;font-weight:normal" x="-141.799" y="592.54">softirq_entry</text>
  </g>
  <g>
    <polyline style="fill: none; fill-opacity:0; stroke-width: 2; stroke: #ecc115" points="572.848,129.71 -183.452,129.71 -183.452,490.026 "/>
    <polyline style="fill: none; fill-opacity:0; stroke-width: 2; stroke: #ecc115" points="-188.452,482.262 -183.452,492.262 -178.452,482.262 "/>
    <text font-size="12.7998" style="fill: #000000;text-anchor:middle;font-family:sans-serif;font-style:normal;font-weight:normal" x="-192.532" y="455.077">irq_handler_entry</text>
  </g>
  <g>
    <polyline style="fill: none; fill-opacity:0; stroke-width: 2; stroke: #008000" points="487.597,433.766 911.225,433.766 911.225,433.031 1000.89,433.031 1000.89,841.95 "/>
    <polyline style="fill: none; fill-opacity:0; stroke-width: 2; stroke: #008000" points="995.89,834.186 1000.89,844.186 1005.89,834.186 "/>
    <text font-size="12.7998" style="fill: #000000;text-anchor:middle;font-family:sans-serif;font-style:normal;font-weight:normal" x="998.112" y="777.338">[prev_state != 0]</text>
    <text font-size="12.7998" style="fill: #000000;text-anchor:middle;font-family:sans-serif;font-style:normal;font-weight:normal" x="996.815" y="760.48">sched_switch</text>
  </g>
  <g>
    <polyline style="fill: none; fill-opacity:0; stroke-width: 2; stroke: #800080" points="1051.14,864.422 1115.14,864.422 1115.14,368.742 1027.37,368.742 "/>
    <polyline style="fill: none; fill-opacity:0; stroke-width: 2; stroke: #800080" points="1035.13,363.742 1025.13,368.742 1035.13,373.742 "/>
    <text font-size="12.7998" style="fill: #000000;text-anchor:middle;font-family:sans-serif;font-style:normal;font-weight:normal" x="1108.89" y="612.838">sched_wakeup*</text>
  </g>
  <g>
    <rect style="fill: #ffffff" x="-112.251" y="45.2241" width="80" height="36" rx="10" ry="10"/>
    <rect style="fill: none; fill-opacity:0; stroke-width: 2; stroke: #000000" x="-112.251" y="45.2241" width="80" height="36" rx="10" ry="10"/>
    <text font-size="12.7998" style="fill: #000000;text-anchor:middle;font-family:sans-serif;font-style:normal;font-weight:normal" x="-72.2506" y="67.1241">
      <tspan x="-72.2506" y="67.1241">initial</tspan>
    </text>
  </g>
  <g>
    <polyline style="fill: none; fill-opacity:0; stroke-width: 2; stroke: #000000" points="-32.2506,63.2241 974.973,63.2241 974.973,346.27 "/>
    <polyline style="fill: none; fill-opacity:0; stroke-width: 2; stroke: #000000" points="969.973,338.506 974.973,348.506 979.973,338.506 "/>
  </g>
  <g>
    <polyline style="fill: none; fill-opacity:0; stroke-width: 2; stroke: #008000" points="487.597,433.766 738.747,433.766 738.747,324.421 974.973,324.421 974.973,346.27 "/>
    <polyline style="fill: none; fill-opacity:0; stroke-width: 2; stroke: #008000" points="969.973,338.506 974.973,348.506 979.973,338.506 "/>
  </g>
  <g>
    <polyline style="fill: none; fill-opacity:0; stroke-width: 2; stroke: #008000" points="346.518,778.607 346.518,220.351 974.973,220.351 974.973,346.27 "/>
    <polyline style="fill: none; fill-opacity:0; stroke-width: 2; stroke: #008000" points="969.973,338.506 974.973,348.506 979.973,338.506 "/>
  </g>
  <g>
    <polyline style="fill: none; fill-opacity:0; stroke-width: 2; stroke: #008000" points="-72.2506,81.2241 -72.2506,535.956 1000.89,535.956 1000.89,841.95 "/>
    <polyline style="fill: none; fill-opacity:0; stroke-width: 2; stroke: #008000" points="995.89,834.186 1000.89,844.186 1005.89,834.186 "/>
  </g>
  <g>
    <polyline style="fill: none; fill-opacity:0; stroke-width: 2; stroke: #008000" points="346.518,796.607 1000.89,796.607 1000.89,841.95 "/>
    <polyline style="fill: none; fill-opacity:0; stroke-width: 2; stroke: #008000" points="995.89,834.186 1000.89,844.186 1005.89,834.186 "/>
  </g>
  <g>
    <polyline style="fill: none; fill-opacity:0; stroke-width: 2; stroke: #000000" points="-32.2506,81.2241 -33.6929,81.2241 -33.6929,111.71 568.376,111.71 "/>
    <polyline style="fill: none; fill-opacity:0; stroke-width: 2; stroke: #000000" points="560.612,116.71 570.612,111.71 560.612,106.71 "/>
  </g>
  <g>
    <polyline style="fill: none; fill-opacity:0; stroke-width: 2; stroke: #ff0000" points="266.518,814.607 201.86,814.607 201.86,111.71 568.376,111.71 "/>
    <polyline style="fill: none; fill-opacity:0; stroke-width: 2; stroke: #ff0000" points="560.612,116.71 570.612,111.71 560.612,106.71 "/>
  </g>
  <g>
    <polyline style="fill: none; fill-opacity:0; stroke-width: 2; stroke: #ff0000" points="950.64,864.422 511.218,864.422 511.218,111.71 568.376,111.71 "/>
    <polyline style="fill: none; fill-opacity:0; stroke-width: 2; stroke: #ff0000" points="560.612,116.71 570.612,111.71 560.612,106.71 "/>
  </g>
  <g>
    <polyline style="fill: none; fill-opacity:0; stroke-width: 2; stroke: #ff0000" points="927.048,350.742 927.048,241.1 431.237,241.1 431.237,111.71 568.376,111.71 "/>
    <polyline style="fill: none; fill-opacity:0; stroke-width: 2; stroke: #ff0000" points="560.612,116.71 570.612,111.71 560.612,106.71 "/>
  </g>
  <g>
    <polyline style="fill: none; fill-opacity:0; stroke-width: 2; stroke: #000000" points="-32.2506,81.2241 866.236,81.2241 866.236,451.766 492.069,451.766 "/>
    <polyline style="fill: none; fill-opacity:0; stroke-width: 2; stroke: #000000" points="499.833,446.766 489.833,451.766 499.833,456.766 "/>
  </g>
  <g>
    <polyline style="fill: none; fill-opacity:0; stroke-width: 2; stroke: #ff0000" points="974.973,386.742 974.973,451.766 492.069,451.766 "/>
    <polyline style="fill: none; fill-opacity:0; stroke-width: 2; stroke: #ff0000" points="499.833,446.766 489.833,451.766 499.833,456.766 "/>
  </g>
  <g>
    <polyline style="fill: none; fill-opacity:0; stroke-width: 2; stroke: #ff0000" points="950.64,882.422 719.118,882.422 719.118,451.766 492.069,451.766 "/>
    <polyline style="fill: none; fill-opacity:0; stroke-width: 2; stroke: #ff0000" points="499.833,446.766 489.833,451.766 499.833,456.766 "/>
  </g>
  <g>
    <polyline style="fill: none; fill-opacity:0; stroke-width: 2; stroke: #ff0000" points="346.518,778.607 346.518,782.029 675.317,782.029 675.317,451.766 492.069,451.766 "/>
    <polyline style="fill: none; fill-opacity:0; stroke-width: 2; stroke: #ff0000" points="499.833,446.766 489.833,451.766 499.833,456.766 "/>
  </g>
  <g>
    <polyline style="fill: none; fill-opacity:0; stroke-width: 2; stroke: #000000" points="-112.251,45.2241 -373.353,45.2241 -373.353,988.505 537.548,988.505 537.548,988.505 1114.51,988.505 1114.51,368.742 1027.37,368.742 "/>
    <polyline style="fill: none; fill-opacity:0; stroke-width: 2; stroke: #000000" points="1035.13,363.742 1025.13,368.742 1035.13,373.742 "/>
  </g>
  <g>
    <polyline style="fill: none; fill-opacity:0; stroke-width: 2; stroke: #800080" points="346.518,814.607 1114.55,814.607 1114.55,368.742 1027.37,368.742 "/>
    <polyline style="fill: none; fill-opacity:0; stroke-width: 2; stroke: #800080" points="1035.13,363.742 1025.13,368.742 1035.13,373.742 "/>
  </g>
  <g>
    <polyline style="fill: none; fill-opacity:0; stroke-width: 2; stroke: #800080" points="-91.302,494.498 -91.302,497.772 1114.55,497.772 1114.55,368.742 1027.37,368.742 "/>
    <polyline style="fill: none; fill-opacity:0; stroke-width: 2; stroke: #800080" points="1035.13,363.742 1025.13,368.742 1035.13,373.742 "/>
  </g>
  <g>
    <polyline style="fill: none; fill-opacity:0; stroke-width: 2; stroke: #ecc115" points="927.048,368.742 -183.452,368.742 -183.452,490.026 "/>
    <polyline style="fill: none; fill-opacity:0; stroke-width: 2; stroke: #ecc115" points="-188.452,482.262 -183.452,492.262 -178.452,482.262 "/>
  </g>
  <g>
    <polyline style="fill: none; fill-opacity:0; stroke-width: 2; stroke: #ecc115" points="266.518,796.607 -237.952,796.607 -237.952,474.529 -183.452,474.529 -183.452,490.026 "/>
    <polyline style="fill: none; fill-opacity:0; stroke-width: 2; stroke: #ecc115" points="-188.452,482.262 -183.452,492.262 -178.452,482.262 "/>
  </g>
  <g>
    <polyline style="fill: none; fill-opacity:0; stroke-width: 2; stroke: #ecc115" points="407.597,433.766 -183.452,433.766 -183.452,490.026 "/>
    <polyline style="fill: none; fill-opacity:0; stroke-width: 2; stroke: #ecc115" points="-188.452,482.262 -183.452,492.262 -178.452,482.262 "/>
  </g>
  <g>
    <polyline style="fill: none; fill-opacity:0; stroke-width: 2; stroke: #ecc115" points="950.64,846.422 950.64,464.498 -183.452,464.498 -183.452,490.026 "/>
    <polyline style="fill: none; fill-opacity:0; stroke-width: 2; stroke: #ecc115" points="-188.452,482.262 -183.452,492.262 -178.452,482.262 "/>
  </g>
  <g>
    <polyline style="fill: none; fill-opacity:0; stroke-width: 2; stroke: #ecc115" points="266.518,778.607 266.518,777.459 -137.377,777.459 -137.377,534.97 "/>
    <polyline style="fill: none; fill-opacity:0; stroke-width: 2; stroke: #ecc115" points="-132.377,542.734 -137.377,532.734 -142.377,542.734 "/>
  </g>
  <g>
    <polyline style="fill: none; fill-opacity:0; stroke-width: 2; stroke: #ecc115" points="950.64,846.422 950.64,848.342 -137.377,848.342 -137.377,534.97 "/>
    <polyline style="fill: none; fill-opacity:0; stroke-width: 2; stroke: #ecc115" points="-132.377,542.734 -137.377,532.734 -142.377,542.734 "/>
  </g>
  <g>
    <polyline style="fill: none; fill-opacity:0; stroke-width: 2; stroke: #ecc115" points="1022.9,386.742 1022.9,652.052 -137.377,652.052 -137.377,534.97 "/>
    <polyline style="fill: none; fill-opacity:0; stroke-width: 2; stroke: #ecc115" points="-132.377,542.734 -137.377,532.734 -142.377,542.734 "/>
  </g>
  <g>
    <polyline style="fill: none; fill-opacity:0; stroke-width: 2; stroke: #ecc115" points="487.597,451.766 487.597,636.107 -137.377,636.107 -137.377,534.97 "/>
    <polyline style="fill: none; fill-opacity:0; stroke-width: 2; stroke: #ecc115" points="-132.377,542.734 -137.377,532.734 -142.377,542.734 "/>
  </g>
  <g>
    <polyline style="fill: none; fill-opacity:0; stroke-width: 2; stroke: #ecc115" points="266.518,778.607 266.518,385.766 487.597,385.766 487.597,411.294 "/>
    <polyline style="fill: none; fill-opacity:0; stroke-width: 2; stroke: #ecc115" points="482.597,403.53 487.597,413.53 492.597,403.53 "/>
  </g>
  <g>
    <polyline style="fill: none; fill-opacity:0; stroke-width: 2; stroke: #ecc115" points="1051.14,846.422 1051.14,396.719 487.597,396.719 487.597,411.294 "/>
    <polyline style="fill: none; fill-opacity:0; stroke-width: 2; stroke: #ecc115" points="482.597,403.53 487.597,413.53 492.597,403.53 "/>
  </g>
  <g>
    <polyline style="fill: none; fill-opacity:0; stroke-width: 2; stroke: #ecc115" points="927.048,350.742 487.162,350.742 487.162,375.97 487.597,375.97 487.597,411.294 "/>
    <polyline style="fill: none; fill-opacity:0; stroke-width: 2; stroke: #ecc115" points="482.597,403.53 487.597,413.53 492.597,403.53 "/>
  </g>
  <g>
    <polyline style="fill: none; fill-opacity:0; stroke-width: 2; stroke: #ff0000" points="-89.9239,1078.2 37.8804,1078.2 "/>
    <polyline style="fill: none; fill-opacity:0; stroke-width: 2; stroke: #ff0000" points="30.1164,1083.2 40.1164,1078.2 30.1164,1073.2 "/>
  </g>
  <g>
    <polyline style="fill: none; fill-opacity:0; stroke-width: 2; stroke: #0000ff" points="-85.0334,1182.71 42.7709,1182.71 "/>
    <polyline style="fill: none; fill-opacity:0; stroke-width: 2; stroke: #0000ff" points="35.0069,1187.71 45.0069,1182.71 35.0069,1177.71 "/>
  </g>
  <g>
    <polyline style="fill: none; fill-opacity:0; stroke-width: 2; stroke: #008000" points="-88.9219,1131.74 38.8824,1131.74 "/>
    <polyline style="fill: none; fill-opacity:0; stroke-width: 2; stroke: #008000" points="31.1184,1136.74 41.1184,1131.74 31.1184,1126.74 "/>
  </g>
  <g>
    <polyline style="fill: none; fill-opacity:0; stroke-width: 2; stroke: #ecc115" points="-86.3282,1242.88 41.476,1242.88 "/>
    <polyline style="fill: none; fill-opacity:0; stroke-width: 2; stroke: #ecc115" points="33.7121,1247.88 43.7121,1242.88 33.7121,1237.88 "/>
  </g>
  <g>
    <polygon style="fill: #ffffff" points="60.5101,1060.05 336.01,1060.05 348.01,1072.05 348.01,1094.05 60.5101,1094.05 "/>
    <polygon style="fill: none; fill-opacity:0; stroke-width: 2; stroke: #000000" points="60.5101,1060.05 336.01,1060.05 348.01,1072.05 348.01,1094.05 60.5101,1094.05 "/>
    <polyline style="fill: none; fill-opacity:0; stroke-width: 1; stroke: #000000" points="336.01,1060.05 336.01,1072.05 348.01,1072.05 "/>
    <text font-size="12.7998" style="fill: #000000;text-anchor:start;font-family:monospace;font-style:normal;font-weight:normal" x="67.5101" y="1084.95">
      <tspan x="67.5101" y="1084.95">next_tid == #CurrentScenario/thread</tspan>
    </text>
  </g>
  <g>
    <polygon style="fill: #ffffff" points="60.2133,1113.83 335.713,1113.83 347.713,1125.83 347.713,1147.83 60.2133,1147.83 "/>
    <polygon style="fill: none; fill-opacity:0; stroke-width: 2; stroke: #000000" points="60.2133,1113.83 335.713,1113.83 347.713,1125.83 347.713,1147.83 60.2133,1147.83 "/>
    <polyline style="fill: none; fill-opacity:0; stroke-width: 1; stroke: #000000" points="335.713,1113.83 335.713,1125.83 347.713,1125.83 "/>
    <text font-size="12.7998" style="fill: #000000;text-anchor:start;font-family:monospace;font-style:normal;font-weight:normal" x="67.2133" y="1138.73">
      <tspan x="67.2133" y="1138.73">prev_tid == #CurrentScenario/thread</tspan>
    </text>
  </g>
  <g>
    <polygon style="fill: #ffffff" points="60.2133,1167.91 343.413,1167.91 355.413,1179.91 355.413,1201.91 60.2133,1201.91 "/>
    <polygon style="fill: none; fill-opacity:0; stroke-width: 2; stroke: #000000" points="60.2133,1167.91 343.413,1167.91 355.413,1179.91 355.413,1201.91 60.2133,1201.91 "/>
    <polyline style="fill: none; fill-opacity:0; stroke-width: 1; stroke: #000000" points="343.413,1167.91 343.413,1179.91 355.413,1179.91 "/>
    <text font-size="12.7998" style="fill: #000000;text-anchor:start;font-family:monospace;font-style:normal;font-weight:normal" x="67.2133" y="1192.81">
      <tspan x="67.2133" y="1192.81">child_tid == #CurrentScenario/thread</tspan>
    </text>
  </g>
  <g>
    <polygon style="fill: #ffffff" points="61.5101,1224.58 414.01,1224.58 426.01,1236.58 426.01,1258.58 61.5101,1258.58 "/>
    <polygon style="fill: none; fill-opacity:0; stroke-width: 2; stroke: #000000" points="61.5101,1224.58 414.01,1224.58 426.01,1236.58 426.01,1258.58 61.5101,1258.58 "/>
    <polyline style="fill: none; fill-opacity:0; stroke-width: 1; stroke: #000000" points="414.01,1224.58 414.01,1236.58 426.01,1236.58 "/>
    <text font-size="12.7998" style="fill: #000000;text-anchor:start;font-family:monospace;font-style:normal;font-weight:normal" x="68.5101" y="1249.48">
      <tspan x="68.5101" y="1249.48">cpu/Current_thread == #CurrentScenario/thread</tspan>
    </text>
  </g>
  <g>
    <polygon style="fill: #ffffff" points="60.2153,1278.52 297.215,1278.52 309.215,1290.52 309.215,1312.52 60.2153,1312.52 "/>
    <polygon style="fill: none; fill-opacity:0; stroke-width: 2; stroke: #000000" points="60.2153,1278.52 297.215,1278.52 309.215,1290.52 309.215,1312.52 60.2153,1312.52 "/>
    <polyline style="fill: none; fill-opacity:0; stroke-width: 1; stroke: #000000" points="297.215,1278.52 297.215,1290.52 309.215,1290.52 "/>
    <text font-size="12.7998" style="fill: #000000;text-anchor:start;font-family:monospace;font-style:normal;font-weight:normal" x="67.2153" y="1303.42">
      <tspan x="67.2153" y="1303.42">tid == #CurrentScenario/thread</tspan>
    </text>
  </g>
  <g>
    <polyline style="fill: none; fill-opacity:0; stroke-width: 2; stroke: #800080" points="-90.2167,1299.42 37.5875,1299.42 "/>
    <polyline style="fill: none; fill-opacity:0; stroke-width: 2; stroke: #800080" points="29.8236,1304.42 39.8236,1299.42 29.8236,1294.42 "/>
  </g>
</svg>
